# xmcd
#
# Track frame offsets: 
#        150
#        11832
#        24087
#        33800
#        46392
#        57655
#        68557
#        79070
#        88200
#        96697
#        109505
#
# Disc length: 1658 seconds
#
# Revision: 1
# Processed by: cddbd v1.4PL0 Copyright (c) Steve Scherf et al.
# Submitted via: ExactAudioCopy v0.90b4
#
DISCID=8806780b
DTITLE=Johnny Rodriguez - The Hits
DYEAR=1997
DGENRE=Country
TTITLE0=I Just Can't Get Her Out Of My Mind
TTITLE1=I Couldn't Be Me Without You
TTITLE2=Ridin' My Thumb To Mexico
TTITLE3=Love Put A Song In My Heart
TTITLE4=Dance With Me (Just One More Time)
TTITLE5=We're Over
TTITLE6=You Always Come Back (To Hurting Me)
TTITLE7=Just Get Up And Close The Door
TTITLE8=That's The Way Love Goes
TTITLE9=Something
TTITLE10=Desperado
EXTD=
EXTT0=
EXTT1=
EXTT2=
EXTT3=
EXTT4=
EXTT5=
EXTT6=
EXTT7=
EXTT8=
EXTT9=
EXTT10=
PLAYORDER=
